<svg xmlns="http://www.w3.org/2000/svg" viewBox="0 0 269.82 63.88"><defs><style>.cls-1{fill:#f2f2f2;}</style></defs><title>Asset 1</title><g id="Layer_2" data-name="Layer 2"><g id="Layer_1-2" data-name="Layer 1"><path class="cls-1" d="M27.35,3.55H21.09V35.26q0,3.73.91,5t3.55,1.3v1.2H11v-1.2q2.72,0,3.7-1.5t1-5V3.55h-6q-4.29,0-6.24,1.37a5.73,5.73,0,0,0-2.2,4.54H0V0H1.23Q2.88,1.55,7.42,1.55H29q4.68,0,6.54-1.55h1.3V9.46h-.81Q35.3,6,33.31,4.8A11.38,11.38,0,0,0,27.35,3.55Z"/><path class="cls-1" d="M48.23,16.59h1.23V38.07q0,2.11.91,2.82a5.72,5.72,0,0,0,3.34.71v1.2h-14v-1.2q3.06,0,3.94-.69t.88-2.84V22.37q0-2.33-.81-3.07t-4-.74v-1.2ZM47.11,3.41A3.06,3.06,0,0,1,50.2,6.5a3.07,3.07,0,0,1-.91,2.23,3,3,0,0,1-2.18.93,3.1,3.1,0,0,1-2.25-.93,3,3,0,0,1-.95-2.23,2.93,2.93,0,0,1,.93-2.2A3.15,3.15,0,0,1,47.11,3.41Z"/><path class="cls-1" d="M65.81,16.59V21.9H66A12,12,0,0,1,70,18a9.87,9.87,0,0,1,5-1.44,8.27,8.27,0,0,1,8,5.73q4.08-5.73,9.42-5.73a8.71,8.71,0,0,1,6.19,2.3,8.21,8.21,0,0,1,2.46,6.3V38A3.43,3.43,0,0,0,102,40.8a5.62,5.62,0,0,0,3.35.72v1.27H91.86V41.52q2.78,0,3.55-.9t.77-4V24.57a5.07,5.07,0,0,0-1.48-3.86,5.63,5.63,0,0,0-4-1.4q-4,0-7.21,4.92V37.87a3.64,3.64,0,0,0,.91,2.89,5.43,5.43,0,0,0,3.34.75v1.27H74.32V41.52q2.88,0,3.57-.91t.69-4V24.85a5.45,5.45,0,0,0-1.51-4,5.28,5.28,0,0,0-3.9-1.51,7.2,7.2,0,0,0-4.06,1.34,10.68,10.68,0,0,0-3.29,3.59V38.08a3.36,3.36,0,0,0,.95,2.74,5.5,5.5,0,0,0,3.38.77v1.2H56.6V41.52q2.81,0,3.57-.88a5.1,5.1,0,0,0,.76-3.23V22.29a4.07,4.07,0,0,0-.83-2.85,3.61,3.61,0,0,0-2.72-.88H55.79v-1.2l8.79-.77Z"/><path class="cls-1" d="M117.53,17.37v1.2q-2.17.32-2.17,2.23a4.37,4.37,0,0,0,.39,1.67l6.12,14.42,4.44-13.48a9.32,9.32,0,0,0,.53-2.65q0-2.05-2.56-2.19v-1.2h9v1.2A4.5,4.5,0,0,0,129.93,20a12.56,12.56,0,0,0-2.43,4.59L117.35,54.61a19.15,19.15,0,0,1-3.77,6.78,6.49,6.49,0,0,1-4.69,2.49,6.2,6.2,0,0,1-3.17-1.09l1.66-4.39a6.12,6.12,0,0,0,2.47.6,5.26,5.26,0,0,0,3.8-1.44,12.56,12.56,0,0,0,2.7-4.82l3.27-9.25-9.15-21.09a7.76,7.76,0,0,0-2-3.05,5.48,5.48,0,0,0-3.15-.78v-1.2Z"/><path class="cls-1" d="M163.3,3.55H157V35.26q0,3.73.91,5t3.55,1.3v1.2H146.92v-1.2q2.72,0,3.7-1.5t1-5V3.55h-6q-4.29,0-6.24,1.37a5.73,5.73,0,0,0-2.2,4.54h-1.23V0h1.23q1.65,1.55,6.19,1.55H165q4.68,0,6.54-1.55h1.3V9.46H172Q171.25,6,169.26,4.8A11.38,11.38,0,0,0,163.3,3.55Z"/><path class="cls-1" d="M184.18,16.59h1.23V38.07q0,2.11.91,2.82a5.72,5.72,0,0,0,3.34.71v1.2h-14v-1.2q3.06,0,3.94-.69t.88-2.84V22.37q0-2.33-.81-3.07t-4-.74v-1.2ZM183.06,3.41a3.06,3.06,0,0,1,3.09,3.09,3.07,3.07,0,0,1-.91,2.23,3,3,0,0,1-2.18.93,3.1,3.1,0,0,1-2.25-.93,3,3,0,0,1-.95-2.23,2.93,2.93,0,0,1,.93-2.2A3.15,3.15,0,0,1,183.06,3.41Z"/><path class="cls-1" d="M201.76,16.59V21.9h.14A12,12,0,0,1,206,18a9.87,9.87,0,0,1,5-1.44,8.27,8.27,0,0,1,8,5.73q4.08-5.73,9.42-5.73a8.71,8.71,0,0,1,6.19,2.3,8.21,8.21,0,0,1,2.46,6.3V38A3.43,3.43,0,0,0,238,40.8a5.62,5.62,0,0,0,3.35.72v1.27h-13.5V41.52q2.78,0,3.55-.9t.77-4V24.57a5.07,5.07,0,0,0-1.48-3.86,5.63,5.63,0,0,0-4-1.4q-4,0-7.21,4.92V37.87a3.64,3.64,0,0,0,.91,2.89,5.43,5.43,0,0,0,3.34.75v1.27H210.27V41.52q2.88,0,3.57-.91t.69-4V24.85a5.45,5.45,0,0,0-1.51-4,5.28,5.28,0,0,0-3.9-1.51A7.2,7.2,0,0,0,205,20.64a10.68,10.68,0,0,0-3.29,3.59V38.08a3.36,3.36,0,0,0,.95,2.74,5.5,5.5,0,0,0,3.38.77v1.2H192.55V41.52q2.81,0,3.57-.88a5.1,5.1,0,0,0,.76-3.23V22.29a4.07,4.07,0,0,0-.83-2.85,3.61,3.61,0,0,0-2.72-.88h-1.58v-1.2l8.79-.77Z"/><path class="cls-1" d="M269.82,36.25v1.86a15.3,15.3,0,0,1-4.73,4.22,12.29,12.29,0,0,1-5.78,1.27,13.63,13.63,0,0,1-9.86-3.74,12.64,12.64,0,0,1-3.88-9.51,13.79,13.79,0,0,1,3.71-9.77,12,12,0,0,1,9.09-4,11.17,11.17,0,0,1,7.73,3,9.3,9.3,0,0,1,3.3,7.14v.53H250.66v.35a19.15,19.15,0,0,0,1.28,7.33,10.94,10.94,0,0,0,3.74,4.87,8.71,8.71,0,0,0,5.13,1.76,8.33,8.33,0,0,0,4.27-1A23.43,23.43,0,0,0,269.82,36.25ZM250.66,26h13.89v-.49a7.43,7.43,0,0,0-2-5.41,6.52,6.52,0,0,0-4.87-2,6.34,6.34,0,0,0-5,2.11A9.24,9.24,0,0,0,250.66,26Z"/></g></g></svg>